<svg width="59" height="64" viewBox="0 0 59 64" fill="none" xmlns="http://www.w3.org/2000/svg">
<g clip-path="url(#clip0_4_27)">
<path d="M8.31126 48.4893C3.76839 43.447 1 36.7709 1 29.4499C1 13.7365 13.7414 1 29.4548 1C45.1682 1 57.9096 13.7365 57.9096 29.4499C57.9096 31.1129 57.7641 32.7468 57.4926 34.3322" stroke="#1D1D1B" stroke-width="0.695418" stroke-linecap="round" stroke-linejoin="round"/>
<path d="M56.4997 38.3127H56.4941" stroke="#1D1D1B" stroke-width="0.695418" stroke-linecap="round" stroke-linejoin="round"/>
<path d="M47.0683 30.8608C44.1641 30.1675 39.7813 37.5466 37.8613 35.0546C35.9365 32.5625 37.8613 27.6803 37.8613 27.6803C43.5339 25.4985 48.547 26.3131 52.096 28.0924C52.9687 30.5844 49.9724 31.5492 47.0683 30.8608Z" fill="#71A894" stroke="#1D1D1B" stroke-width="0.695418" stroke-miterlimit="10"/>
<path d="M54.7776 52.6347C51.4031 51.8445 52.2322 46.5016 52.2322 46.5016C49.2941 50.4191 45.367 53.5608 40.8241 55.5389C40.8483 53.522 39.2775 52.8529 37.6193 53.8226C35.9564 54.7874 35.68 53.8226 33.1007 53.8226C30.5214 53.8226 30.6766 57.8758 30.6766 57.8758C30.1966 62.6756 26.7591 64.1592 24.5143 62.5205C22.8902 61.3326 23.2004 58.8891 23.5301 57.5315C19.186 57.4394 10.5172 56.2419 8.67004 51.762C8.06884 50.3027 8.0543 49.2458 8.31611 48.4846C8.88821 46.7974 10.7839 46.5355 10.5948 46.5355C10.4203 43.2435 12.6554 40.4218 14.3329 38.7928C14.3329 38.7928 12.6796 34.4244 13.6541 33.9784C14.6335 33.5275 15.9086 33.5372 19.2103 36.3832C19.3557 36.3735 23.1083 35.7917 24.9119 36.2717C24.9895 36.228 26.41 33.0718 27.467 33.0718C27.8209 33.0718 28.1991 33.3627 28.5675 33.8087C31.7674 30.7591 34.9091 28.8052 37.8715 27.6707C37.8715 27.6707 35.9467 32.553 37.8715 35.045C39.7914 37.5371 44.1743 30.1579 47.0784 30.8512C49.9826 31.5397 52.9788 30.5749 52.1061 28.0828C52.9158 28.4853 53.6479 28.941 54.2927 29.421C54.3703 25.009 53.1437 19.1329 47.6214 14.0033C47.2287 13.6106 47.1948 12.9803 47.5536 12.5488C47.9366 12.0834 48.6202 12.0252 49.0759 12.4082C55.7909 18.648 57.0466 26.4441 56.809 31.2391C56.809 31.2391 57.7253 33.1396 57.4926 34.3323C57.255 35.6947 56.9254 37.0231 56.5036 38.3128C59.2332 40.4267 58.1617 53.4202 54.7824 52.6347H54.7776Z" stroke="#1D1D1B" stroke-width="0.695418" stroke-linecap="round" stroke-linejoin="round"/>
<path d="M16.1075 37.2849C16.1075 37.2849 15.3172 37.8376 14.3281 38.7976" stroke="#1D1D1B" stroke-width="0.695418" stroke-linecap="round" stroke-linejoin="round"/>
<path d="M49.1596 12.5012L49.0713 12.4128" stroke="#1D1D1B" stroke-width="0.695418" stroke-linecap="round" stroke-linejoin="round"/>
<path d="M28.5635 33.8232C29.2859 34.7008 29.9646 36.1941 30.3137 37.2898" stroke="#1D1D1B" stroke-width="0.695418" stroke-linecap="round" stroke-linejoin="round"/>
<path d="M25.1151 46.6614C25.1151 46.6614 23.6509 44.436 20.9795 46.1814" stroke="#1D1D1B" stroke-width="1.39084" stroke-miterlimit="10" stroke-linecap="round"/>
<path d="M15.8119 45.876C15.8119 45.876 14.7647 43.8639 12.3018 45.0906" stroke="#1D1D1B" stroke-width="1.39084" stroke-miterlimit="10" stroke-linecap="round"/>
<path d="M14.2352 42.8605C14.754 42.751 15.1288 42.4456 15.0724 42.1784C15.016 41.9111 14.5497 41.7833 14.031 41.8928C13.5122 42.0023 13.1374 42.3077 13.1938 42.5749C13.2503 42.8422 13.7165 42.97 14.2352 42.8605Z" fill="#1D1D1B"/>
<path d="M24.8796 43.2938C24.946 42.9794 24.5049 42.62 23.8945 42.4912C23.284 42.3623 22.7354 42.5127 22.669 42.8271C22.6026 43.1415 23.0437 43.5008 23.6541 43.6297C24.2646 43.7586 24.8132 43.6082 24.8796 43.2938Z" fill="#1D1D1B"/>
<path d="M40.8242 55.5387C37.6922 56.9059 34.2645 57.7253 30.6719 57.8756C30.6719 57.8756 30.5119 53.8224 33.096 53.8224C35.6802 53.8224 35.9517 54.7872 37.6147 53.8224C39.2728 52.8527 40.8436 53.517 40.8194 55.5387H40.8242Z" fill="#71A894" stroke="#1D1D1B" stroke-width="0.695418" stroke-miterlimit="10"/>
<path d="M20.3058 57.3132C20.1409 57.6138 20.0488 57.9629 20.0488 58.3314C20.0488 59.5241 21.0136 60.4889 22.2063 60.4889C22.6039 60.4889 22.9772 60.3822 23.2972 60.1883" stroke="#1D1D1B" stroke-width="0.695418" stroke-miterlimit="10"/>
<path d="M22.0223 59.4179C22.2822 59.4179 22.4929 59.2073 22.4929 58.9474C22.4929 58.6875 22.2822 58.4768 22.0223 58.4768C21.7624 58.4768 21.5518 58.6875 21.5518 58.9474C21.5518 59.2073 21.7624 59.4179 22.0223 59.4179Z" fill="#1D1D1B"/>
<path d="M22.0223 58.9471C22.0223 58.9471 22.2261 59.995 21.5518 60.388" stroke="#1D1D1B" stroke-width="0.695418" stroke-miterlimit="10"/>
</g>
<defs>
<clipPath id="clip0_4_27">
<rect width="59" height="64" fill="white"/>
</clipPath>
</defs>
</svg>
